<?xml version="1.0" encoding="utf-8"?><svg xmlns="http://www.w3.org/2000/svg" xmlns:xlink="http://www.w3.org/1999/xlink"><symbol viewBox="0 0 24 24" id="arrow" xmlns="http://www.w3.org/2000/svg"><path d="m10 7 5 5.5-5 5.5"/></symbol><symbol viewBox="0 0 22 24" id="basket" xmlns="http://www.w3.org/2000/svg"><g clip-path="url(#ba)"><path d="M10.363 18.443a2.046 2.046 0 0 0-2.045 2.042 2.046 2.046 0 0 0 4.09 0 2.046 2.046 0 0 0-2.045-2.042Zm6.134 0a2.046 2.046 0 0 0-2.045 2.042 2.046 2.046 0 0 0 4.089 0 2.046 2.046 0 0 0-2.044-2.042Zm3.978-8.199L7.413 6.891a.614.614 0 0 0-.75.73L8.67 16.4h-.786L5.482 5.895a.613.613 0 0 0-.474-.464l-4.27-.882A.614.614 0 0 0 .489 5.75l3.885.802L6.797 17.15a.613.613 0 0 0 .598.477h12.07a.615.615 0 0 0 .607-.53l.858-6.175a.613.613 0 0 0-.455-.678Zm-8.14 3.91a.613.613 0 0 1-1.227 0v-2.696a.613.613 0 0 1 1.227 0v2.696Zm2.625 0a.613.613 0 0 1-1.227 0v-1.88a.613.613 0 0 1 1.227 0v1.88Zm2.625 0a.613.613 0 0 1-1.227 0v-1.226a.613.613 0 0 1 1.227 0v1.226Z"/></g><path fill-rule="evenodd" clip-rule="evenodd" d="M16.268 4.568a2.996 2.996 0 0 0-1.693-.523c-.627 0-1.21.193-1.693.523-.28-.843-.492-1.752-.492-2.383C12.39.98 13.37 0 14.575 0s2.185.98 2.185 2.185c0 .631-.212 1.54-.492 2.383Zm-4.722 2.274.024.006v-.011l-.024.005Zm4.972 1.217c-1.333-.33-2.766-.681-4.129-1.013a2.185 2.185 0 1 1 4.129 1.013Zm4.436 1.103c-.866-.217-2.155-.538-3.618-.9a2.995 2.995 0 0 0 .243-1.425c.87.18 1.762.45 2.308.765.596.344.969.928 1.067 1.56ZM9.869 6.439c-.36-.086-.706-.167-1.03-.243a2.19 2.19 0 0 1-.376-2.667 2.188 2.188 0 0 1 3.147-.7c.098.738.338 1.599.61 2.353a3.01 3.01 0 0 0-.449.774c-.628.113-1.305.278-1.902.483Zm10.124.075a3.43 3.43 0 0 1-.217.114c-.696-.295-1.587-.526-2.397-.672a3.01 3.01 0 0 0-.449-.774c.262-.727.494-1.553.599-2.273.095-.067.189-.128.278-.18a2.188 2.188 0 0 1 2.986.8 2.188 2.188 0 0 1-.8 2.985Z"/><defs><clipPath id="ba"><path transform="translate(0 3.064)" d="M0 0h20.936v20.936H0z"/></clipPath></defs></symbol><symbol viewBox="0 0 344.96 344.96" id="check" xmlns="http://www.w3.org/2000/svg"><g data-name="Слой 2"><path class="ccls-1" d="m321.85 86.24-40-23.11-23.1-40H212.5L172.48 0l-40 23.11H86.24l-23.11 40-40 23.1v46.21L0 172.48l23.11 40v46.21l40 23.11 23.11 40h46.21l40 23.1 40-23.11h46.21l23.11-40 40-23.11V212.5l23.11-40-23.11-40V86.24ZM156.91 243.07a16.79 16.79 0 0 1-23.34 0l-50.45-50.44a16.19 16.19 0 0 1 0-22.89l13.35-13.35a16.19 16.19 0 0 1 22.89 0l25.87 25.87 80.34-80.35a16.19 16.19 0 0 1 22.89 0l13.35 13.35a16.19 16.19 0 0 1 0 22.89Z" data-name="Capa 1"/></g></symbol><symbol viewBox="0 0 14 14" id="close" xmlns="http://www.w3.org/2000/svg"><path d="m8.59 7 4.454-4.453a1.126 1.126 0 0 0-1.59-1.594L7 5.406 2.547.953A1.127 1.127 0 1 0 .953 2.547L5.406 7 .953 11.453a1.127 1.127 0 0 0 1.594 1.594L7 8.594l4.453 4.453a1.127 1.127 0 0 0 1.594-1.594L8.59 7Z"/></symbol><symbol viewBox="0 0 22 22" id="compare" xmlns="http://www.w3.org/2000/svg"><path d="M15 3h3v16h-3V3ZM9 13h3v6H9v-6ZM3 8h3v11H3V8Z"/></symbol><symbol viewBox="0 0 14 14" id="download" xmlns="http://www.w3.org/2000/svg"><g clip-path="url(#ga)"><path d="M14 13.125a.875.875 0 0 1-.875.875H.875a.875.875 0 0 1 0-1.75h12.25c.483 0 .875.392.875.875Zm-7.619-2.772a.872.872 0 0 0 1.238 0l3.1-3.1A.875.875 0 0 0 9.48 6.016L7.875 7.622V.875a.875.875 0 0 0-1.75 0v6.747L4.519 6.016A.875.875 0 1 0 3.28 7.253l3.1 3.1Z"/></g><defs><clipPath id="ga"><path d="M0 0h14v14H0z"/></clipPath></defs></symbol><symbol viewBox="0 0 16 16" id="download-t" xmlns="http://www.w3.org/2000/svg"><path d="M11.06 6H10V2.667C10 2.3 9.7 2 9.333 2H6.666C6.3 2 6 2.3 6 2.667V6H4.94a.669.669 0 0 0-.474 1.14l3.06 3.06c.26.26.68.26.94 0l3.06-3.06c.42-.42.127-1.14-.466-1.14Zm-7.727 6.667c0 .366.3.666.667.666h8c.366 0 .666-.3.666-.666 0-.367-.3-.667-.666-.667H4c-.367 0-.667.3-.667.667Z"/></symbol><symbol viewBox="0 0 20 21" id="email" xmlns="http://www.w3.org/2000/svg"><path d="M16.667 3.833H3.334c-.917 0-1.659.75-1.659 1.667l-.008 10c0 .917.75 1.667 1.667 1.667h13.333c.917 0 1.667-.75 1.667-1.667v-10c0-.917-.75-1.667-1.667-1.667Zm0 3.334L10 11.333 3.334 7.167V5.5L10 9.667 16.667 5.5v1.667Z"/></symbol><symbol viewBox="0 0 20 21" id="fax" xmlns="http://www.w3.org/2000/svg"><path d="M6.667 17.167V3.833H15V8h.834a2.41 2.41 0 0 1 1.77.73c.487.485.73 1.076.73 1.77v6.667H6.667ZM3.75 18c.584 0 1.077-.201 1.48-.604.402-.403.604-.896.604-1.48V9.25c0-.583-.202-1.076-.605-1.48a2.012 2.012 0 0 0-1.479-.603c-.583 0-1.076.201-1.479.604a2.012 2.012 0 0 0-.604 1.479v6.667c0 .583.201 1.076.604 1.479.403.403.896.604 1.48.604ZM8.334 8h5V5.5h-5V8Zm5 4.167c.236 0 .434-.08.594-.24.16-.16.24-.358.239-.594a.807.807 0 0 0-.24-.594.803.803 0 0 0-.593-.239.807.807 0 0 0-.595.24.803.803 0 0 0-.239.593c0 .236.08.434.24.595.16.16.358.24.594.239Zm2.5 0c.236 0 .434-.08.594-.24.16-.16.24-.358.239-.594a.807.807 0 0 0-.24-.594.803.803 0 0 0-.593-.239.807.807 0 0 0-.595.24.803.803 0 0 0-.239.593c0 .236.08.434.24.595.16.16.358.24.594.239Zm-2.5 2.5c.236 0 .434-.08.594-.24.16-.16.24-.358.239-.594a.807.807 0 0 0-.24-.594.803.803 0 0 0-.593-.239.807.807 0 0 0-.595.24.803.803 0 0 0-.239.593c0 .236.08.434.24.595.16.16.358.24.594.239Zm2.5 0c.236 0 .434-.08.594-.24.16-.16.24-.358.239-.594a.807.807 0 0 0-.24-.594.803.803 0 0 0-.593-.239.807.807 0 0 0-.595.24.803.803 0 0 0-.239.593c0 .236.08.434.24.595.16.16.358.24.594.239Zm-7.5 0h3.333V10.5H8.334v4.167Z"/></symbol><symbol viewBox="0 0 24 24" id="fb" xmlns="http://www.w3.org/2000/svg"><path d="M13.397 20.997v-8.196h2.765l.411-3.209h-3.176V7.548c0-.926.258-1.56 1.587-1.56h1.684v-2.86A22.108 22.108 0 0 0 14.201 3c-2.444 0-4.122 1.492-4.122 4.231v2.355H7.332v3.21h2.753v8.201h3.312Z"/></symbol><symbol viewBox="0 0 24 24" id="instagram" xmlns="http://www.w3.org/2000/svg"><path d="M11.999 7.377a4.624 4.624 0 1 0 0 9.248 4.624 4.624 0 0 0 0-9.248Zm0 7.627a3.004 3.004 0 1 1 0-6.008 3.004 3.004 0 0 1 0 6.008Zm4.807-6.719a1.078 1.078 0 1 0 0-2.156 1.078 1.078 0 0 0 0 2.156Z"/><path d="M20.533 6.11A4.605 4.605 0 0 0 17.9 3.48a6.607 6.607 0 0 0-2.186-.42c-.963-.042-1.268-.054-3.71-.054s-2.755 0-3.71.054a6.554 6.554 0 0 0-2.184.42 4.6 4.6 0 0 0-2.633 2.63 6.585 6.585 0 0 0-.419 2.186c-.043.962-.056 1.267-.056 3.71 0 2.442 0 2.753.056 3.71.015.748.156 1.486.419 2.187a4.61 4.61 0 0 0 2.634 2.632 6.583 6.583 0 0 0 2.185.45c.963.042 1.268.055 3.71.055s2.755 0 3.71-.055a6.616 6.616 0 0 0 2.186-.42 4.613 4.613 0 0 0 2.633-2.632c.263-.7.404-1.438.419-2.186.043-.962.056-1.267.056-3.71s0-2.753-.056-3.71a6.583 6.583 0 0 0-.421-2.217Zm-1.218 9.533a5.046 5.046 0 0 1-.311 1.688 2.987 2.987 0 0 1-1.712 1.71c-.535.2-1.1.305-1.67.312-.95.044-1.218.055-3.654.055-2.438 0-2.687 0-3.655-.055a4.961 4.961 0 0 1-1.67-.311 2.984 2.984 0 0 1-1.718-1.711 5.08 5.08 0 0 1-.311-1.67c-.043-.95-.053-1.217-.053-3.653 0-2.437 0-2.686.053-3.655a5.038 5.038 0 0 1 .311-1.687c.305-.79.93-1.41 1.719-1.712a5.01 5.01 0 0 1 1.669-.311c.95-.043 1.218-.055 3.655-.055s2.687 0 3.654.055a4.96 4.96 0 0 1 1.67.31 2.99 2.99 0 0 1 1.712 1.713 5.06 5.06 0 0 1 .311 1.669c.043.95.054 1.218.054 3.655 0 2.436 0 2.698-.043 3.654h-.011v-.001Z"/></symbol><symbol viewBox="0 0 11 18" id="left" xmlns="http://www.w3.org/2000/svg"><path d="M10 17 2 9l8-8"/></symbol><symbol viewBox="0 0 24 24" id="list" xmlns="http://www.w3.org/2000/svg"><path d="M7 9V7h14v2H7Zm0 4v-2h14v2H7Zm0 4v-2h14v2H7ZM4 9a.968.968 0 0 1-.713-.288A.964.964 0 0 1 3 8c0-.283.096-.521.288-.713A.964.964 0 0 1 4 7c.283 0 .521.096.713.288.192.192.288.43.287.712a.968.968 0 0 1-.288.713A.964.964 0 0 1 4 9Zm0 4a.968.968 0 0 1-.713-.288A.964.964 0 0 1 3 12c0-.283.096-.521.288-.713A.964.964 0 0 1 4 11c.283 0 .521.096.713.288.192.192.288.43.287.712a.968.968 0 0 1-.288.713A.964.964 0 0 1 4 13Zm0 4a.968.968 0 0 1-.713-.288A.964.964 0 0 1 3 16c0-.283.096-.521.288-.713A.964.964 0 0 1 4 15c.283 0 .521.096.713.288.192.192.288.43.287.712a.968.968 0 0 1-.288.713A.964.964 0 0 1 4 17Z"/></symbol><symbol viewBox="0 0 20 20" id="metro" xmlns="http://www.w3.org/2000/svg"><path d="M7.525 13.05a.85.85 0 1 1 0 1.7.85.85 0 0 1 0-1.7ZM6.25 7.95h8.5v4.25h-8.5V7.95Zm7.225 5.1a.85.85 0 1 1 0 1.7.85.85 0 0 1 0-1.7Zm2.125.748V7.95c0-2.227-2.278-2.55-5.1-2.55-2.55 0-5.1.314-5.1 2.55v5.848a2.227 2.227 0 0 0 2.227 2.227l-.952.952v.323h1.42l1.274-1.275h2.406L13.05 17.3h1.275v-.323l-.96-.952a2.231 2.231 0 0 0 2.235-2.227ZM15.43 2.68C17.7 3.564 19 5.442 19 7.831V19H2V7.831C2 5.442 3.3 3.564 5.57 2.68 7.1 2.076 8.919 2 10.5 2c1.581 0 3.4.076 4.93.68Z"/></symbol><symbol viewBox="0 0 20 21" id="open" xmlns="http://www.w3.org/2000/svg"><path d="M8.75 12.375a.625.625 0 0 1-.442-1.067l6.17-6.17a2.176 2.176 0 0 0-1.04-.263H4.062a2.19 2.19 0 0 0-2.187 2.188v9.375a2.19 2.19 0 0 0 2.188 2.187h9.375a2.19 2.19 0 0 0 2.187-2.188V7.063c0-.363-.09-.72-.264-1.04l-6.17 6.17a.623.623 0 0 1-.441.183Z"/><path d="M17.5 2.375h-4.375a.625.625 0 1 0 0 1.25h2.866l-1.513 1.514c.373.203.68.51.883.883l1.514-1.513v2.866a.625.625 0 1 0 1.25 0V3a.625.625 0 0 0-.625-.625Z"/></symbol><symbol viewBox="0 0 20 21" id="phone" xmlns="http://www.w3.org/2000/svg"><path d="M17.5 14.183v2.947a.833.833 0 0 1-.775.832c-.364.025-.662.038-.892.038C8.47 18 2.5 12.03 2.5 4.667c0-.23.013-.528.038-.892A.833.833 0 0 1 3.37 3h2.947a.417.417 0 0 1 .415.375c.019.192.036.344.053.46a11.58 11.58 0 0 0 1.007 3.334.38.38 0 0 1-.123.473L5.871 8.927a10.872 10.872 0 0 0 5.703 5.703l1.284-1.795a.385.385 0 0 1 .477-.124c1.054.5 2.178.84 3.333 1.004.116.017.269.034.459.053a.417.417 0 0 1 .373.415Z"/></symbol><symbol viewBox="0 0 24 24" id="pin" xmlns="http://www.w3.org/2000/svg"><path d="M12 2C7.59 2 4 5.589 4 9.995 3.971 16.44 11.696 21.784 12 22c0 0 8.03-5.56 8-12 0-4.411-3.589-8-8-8Zm0 12c-2.21 0-4-1.79-4-4s1.79-4 4-4 4 1.79 4 4-1.79 4-4 4Z"/></symbol><symbol viewBox="0 0 24 24" id="route" xmlns="http://www.w3.org/2000/svg"><path fill-rule="evenodd" clip-rule="evenodd" d="M5.556 5.556C8.594 2.52 10.112 1 12 1s3.406 1.518 6.444 4.556C21.48 8.594 23 10.112 23 12s-1.518 3.406-4.556 6.444C15.406 21.48 13.888 23 12 23s-3.406-1.518-6.444-4.556C2.52 15.406 1 13.888 1 12s1.518-3.406 4.556-6.444Zm8.475 2.541a.825.825 0 1 0-1.129 1.205l1.411 1.323h-3.78c-.61 0-1.515.165-2.295.69-.823.556-1.463 1.494-1.463 2.885a.825.825 0 0 0 1.65 0c0-.808.338-1.246.737-1.516a2.61 2.61 0 0 1 1.372-.409h3.78l-1.412 1.323a.825.825 0 0 0 1.129 1.204l2.933-2.75a.825.825 0 0 0 0-1.204l-2.933-2.75Z"/></symbol><symbol viewBox="0 0 24 24" id="search" xmlns="http://www.w3.org/2000/svg"><path d="m21.81 20.912-5.163-5.081a8.168 8.168 0 0 0 2.183-5.55C18.83 5.707 15.062 2 10.415 2 5.767 2 2 5.707 2 10.28c0 4.574 3.767 8.281 8.415 8.281 2.008 0 3.85-.694 5.296-1.849l5.184 5.101a.654.654 0 0 0 1.056-.206.632.632 0 0 0-.14-.695Zm-11.395-3.625c-3.933 0-7.12-3.137-7.12-7.006 0-3.87 3.187-7.007 7.12-7.007 3.932 0 7.12 3.137 7.12 7.007 0 3.87-3.188 7.006-7.12 7.006Z"/></symbol><symbol viewBox="0 0 16 16" id="telegram" xmlns="http://www.w3.org/2000/svg"><path d="m14.629 3.698-2.012 9.618c-.152.679-.548.848-1.11.528l-3.066-2.29-1.48 1.442c-.163.166-.3.305-.616.305l.22-3.165 5.683-5.204c.247-.223-.054-.347-.384-.123L4.839 9.29l-3.024-.959c-.658-.208-.67-.667.137-.986L13.78 2.727c.548-.208 1.027.124.849.971Z"/></symbol><symbol viewBox="0 0 20 21" id="time" xmlns="http://www.w3.org/2000/svg"><g clip-path="url(#ua)"><path d="M10 2.167a8.333 8.333 0 1 1 0 16.666 8.333 8.333 0 0 1 0-16.666ZM10 5.5a.833.833 0 0 0-.833.833V10.5c0 .221.088.433.244.59l2.5 2.5a.833.833 0 0 0 1.178-1.18l-2.255-2.255V6.333A.833.833 0 0 0 10 5.5Z"/></g><defs><clipPath id="ua"><path transform="translate(0 .5)" d="M0 0h20v20H0z"/></clipPath></defs></symbol><symbol viewBox="0 0 16 16" id="viber" xmlns="http://www.w3.org/2000/svg"><path d="M8 1.335c-1.071.013-3.374.19-4.662 1.37-.958.948-1.292 2.35-1.331 4.084-.033 1.728-.072 4.973 3.058 5.856v1.346s-.02.538.337.648c.438.14.688-.275 1.105-.72l.778-.879c2.142.178 3.782-.232 3.97-.293.435-.139 2.883-.451 3.283-3.696.41-3.351-.2-5.463-1.301-6.418h-.007c-.332-.306-1.668-1.279-4.652-1.29 0 0-.222-.014-.578-.008Zm.037.942a7.02 7.02 0 0 1 .488.011c2.527.007 3.732.767 4.017 1.023.927.794 1.405 2.697 1.055 5.495-.332 2.713-2.317 2.885-2.685 3.002-.156.05-1.6.406-3.42.289 0 0-1.356 1.634-1.78 2.055-.067.074-.146.095-.196.085-.071-.018-.093-.107-.089-.229l.013-2.233c-2.655-.733-2.498-3.5-2.47-4.946.033-1.446.304-2.628 1.113-3.43 1.088-.982 3.043-1.115 3.953-1.122Zm.2 1.446a.166.166 0 1 0 0 .332 3.136 3.136 0 0 1 2.242.883c.606.588.9 1.378.912 2.411 0 .092.074.167.167.167V7.51a.167.167 0 0 0 .168-.165 3.588 3.588 0 0 0-1.009-2.646c-.66-.645-1.496-.977-2.48-.977Zm-2.198.382a.523.523 0 0 0-.342.067H5.69a2.61 2.61 0 0 0-.637.523 1.003 1.003 0 0 0-.256.525.71.71 0 0 0 .026.302l.01.006c.172.504.396.988.67 1.444a8.48 8.48 0 0 0 1.29 1.762l.015.022.024.017.015.018.017.015c.532.505 1.127.94 1.769 1.295.734.4 1.18.588 1.447.667v.004c.078.024.15.034.221.034.228-.016.444-.109.613-.262a2.53 2.53 0 0 0 .517-.638v-.004c.128-.241.085-.469-.1-.623-.37-.323-.77-.61-1.195-.857-.285-.155-.574-.061-.69.095l-.25.315c-.129.156-.361.134-.361.134l-.007.004C7.093 8.527 6.63 6.772 6.63 6.772s-.022-.239.139-.36l.312-.252c.15-.122.254-.41.094-.695a7.498 7.498 0 0 0-.856-1.194.475.475 0 0 0-.28-.167Zm2.486.495c-.221 0-.221.334.003.334A2.098 2.098 0 0 1 10 5.572 1.94 1.94 0 0 1 10.5 7a.168.168 0 0 0 .167.165l.007.009a.169.169 0 0 0 .167-.167c.015-.662-.191-1.218-.595-1.663C9.84 4.9 9.273 4.65 8.549 4.6h-.024Zm.274.898c-.228-.006-.236.335-.01.341.55.029.816.306.851.877a.166.166 0 0 0 .165.163h.007a.168.168 0 0 0 .16-.178c-.039-.744-.445-1.164-1.166-1.202H8.8Z"/></symbol><symbol viewBox="0 0 24 24" id="vk" xmlns="http://www.w3.org/2000/svg"><path d="M21.579 6.855c.14-.465 0-.806-.662-.806h-2.193c-.558 0-.813.295-.953.619 0 0-1.115 2.719-2.695 4.482-.51.513-.743.675-1.021.675-.139 0-.341-.162-.341-.627V6.855c0-.558-.161-.806-.626-.806H9.642c-.348 0-.558.258-.558.504 0 .528.79.65.871 2.138v3.228c0 .707-.127.836-.407.836-.743 0-2.551-2.73-3.624-5.853-.209-.607-.42-.852-.98-.852H2.752c-.627 0-.752.295-.752.619 0 .582.743 3.462 3.461 7.27 1.812 2.602 4.363 4.012 6.687 4.012 1.393 0 1.565-.313 1.565-.853v-1.966c0-.626.133-.752.574-.752.324 0 .882.164 2.183 1.417 1.486 1.486 1.732 2.153 2.567 2.153h2.192c.626 0 .939-.313.759-.931-.197-.615-.907-1.51-1.849-2.57-.512-.603-1.277-1.253-1.51-1.578-.325-.42-.231-.604 0-.976.001 0 2.672-3.761 2.95-5.04Z"/></symbol><symbol viewBox="0 0 20 20" id="web" xmlns="http://www.w3.org/2000/svg"><path d="M6.95 11.4H4.58a5.5 5.5 0 0 1 0-2.8h2.37a11.56 11.56 0 0 0-.1 1.4c.005.468.038.936.1 1.4ZM5.16 7.2H7.2a12.06 12.06 0 0 1 .98-2.49A5.55 5.55 0 0 0 5.16 7.2Zm9.68 0a5.59 5.59 0 0 0-3.03-2.49c.424.787.75 1.624.97 2.49M10 15.57a9.502 9.502 0 0 0 1.34-2.77H8.66A9.5 9.5 0 0 0 10 15.57Zm0-11.15A9.53 9.53 0 0 0 8.66 7.2h2.68A9.532 9.532 0 0 0 10 4.42ZM5.16 12.8a5.61 5.61 0 0 0 3.02 2.49 12.06 12.06 0 0 1-.98-2.49M19 3v14a2 2 0 0 1-2 2H3a2 2 0 0 1-2-2V3a2 2 0 0 1 2-2h14a2 2 0 0 1 2 2Zm-2 7a7 7 0 1 0-14 0 7 7 0 0 0 14 0Zm-3.85 0c-.005.468-.038.936-.1 1.4h2.37a5.499 5.499 0 0 0 0-2.8h-2.37c.062.464.095.932.1 1.4Zm-1.34 5.29a5.62 5.62 0 0 0 3.03-2.49h-2.06a10.95 10.95 0 0 1-.97 2.49ZM8.36 8.6a8.81 8.81 0 0 0 0 2.8h3.28a10.3 10.3 0 0 0 .11-1.4 10.204 10.204 0 0 0-.11-1.4H8.36Z"/></symbol><symbol viewBox="0 0 16 16" id="whatsapp" xmlns="http://www.w3.org/2000/svg"><path fill-rule="evenodd" clip-rule="evenodd" d="M12.269 3.755A5.947 5.947 0 0 0 8.035 2 5.994 5.994 0 0 0 2.05 7.985a5.98 5.98 0 0 0 .799 2.992L2 14.077l3.173-.832c.877.477 1.86.728 2.86.728h.002a5.993 5.993 0 0 0 5.533-8.276 5.953 5.953 0 0 0-1.3-1.942Zm-4.234 9.208h-.002c-.89 0-1.765-.24-2.532-.694l-.181-.108-1.883.494.502-1.835-.118-.188a4.965 4.965 0 0 1-.76-2.647 4.982 4.982 0 0 1 6.88-4.597c.604.25 1.152.618 1.613 1.081a4.946 4.946 0 0 1 1.455 3.52 4.982 4.982 0 0 1-4.974 4.974Zm2.729-3.726c-.15-.075-.885-.436-1.022-.486-.137-.05-.236-.075-.336.074-.1.15-.387.486-.474.586-.087.1-.175.112-.324.038-.15-.075-.631-.233-1.203-.742a4.505 4.505 0 0 1-.832-1.036c-.087-.15-.009-.231.066-.306.068-.066.15-.174.224-.262.075-.087.1-.149.15-.249.05-.1.025-.187-.013-.262-.037-.075-.337-.811-.461-1.11-.121-.29-.244-.252-.336-.256a6.418 6.418 0 0 0-.286-.005.55.55 0 0 0-.4.186c-.137.15-.523.512-.523 1.248s.536 1.447.61 1.547c.075.1 1.055 1.61 2.555 2.258.358.154.636.246.853.315.358.114.684.098.942.06.287-.043.885-.362 1.01-.711.124-.35.124-.649.087-.711-.038-.063-.138-.101-.287-.176Z"/></symbol></svg>