<svg width="20" height="21" viewBox="0 0 20 21" fill="none" xmlns="http://www.w3.org/2000/svg">
<path d="M6.66699 17.1667V3.83337H15.0003V8.00004H15.8337C16.5281 8.00004 17.1184 8.2431 17.6045 8.72921C18.0906 9.21532 18.3337 9.8056 18.3337 10.5V17.1667H6.66699ZM3.75033 18C4.33366 18 4.82671 17.7987 5.22949 17.3959C5.63227 16.9931 5.83366 16.5 5.83366 15.9167V9.25004C5.83366 8.66671 5.63227 8.17365 5.22949 7.77087C4.82671 7.3681 4.33366 7.16671 3.75033 7.16671C3.16699 7.16671 2.67394 7.3681 2.27116 7.77087C1.86838 8.17365 1.66699 8.66671 1.66699 9.25004V15.9167C1.66699 16.5 1.86838 16.9931 2.27116 17.3959C2.67394 17.7987 3.16699 18 3.75033 18ZM8.33366 8.00004H13.3337V5.50004H8.33366V8.00004ZM13.3337 12.1667C13.5698 12.1667 13.7678 12.0867 13.9278 11.9267C14.0878 11.7667 14.1675 11.5689 14.167 11.3334C14.167 11.0973 14.087 10.8992 13.927 10.7392C13.767 10.5792 13.5692 10.4995 13.3337 10.5C13.0975 10.5 12.8995 10.58 12.7395 10.74C12.5795 10.9 12.4998 11.0978 12.5003 11.3334C12.5003 11.5695 12.5803 11.7675 12.7403 11.9275C12.9003 12.0875 13.0981 12.1673 13.3337 12.1667ZM15.8337 12.1667C16.0698 12.1667 16.2678 12.0867 16.4278 11.9267C16.5878 11.7667 16.6675 11.5689 16.667 11.3334C16.667 11.0973 16.587 10.8992 16.427 10.7392C16.267 10.5792 16.0692 10.4995 15.8337 10.5C15.5975 10.5 15.3995 10.58 15.2395 10.74C15.0795 10.9 14.9998 11.0978 15.0003 11.3334C15.0003 11.5695 15.0803 11.7675 15.2403 11.9275C15.4003 12.0875 15.5981 12.1673 15.8337 12.1667ZM13.3337 14.6667C13.5698 14.6667 13.7678 14.5867 13.9278 14.4267C14.0878 14.2667 14.1675 14.0689 14.167 13.8334C14.167 13.5973 14.087 13.3992 13.927 13.2392C13.767 13.0792 13.5692 12.9995 13.3337 13C13.0975 13 12.8995 13.08 12.7395 13.24C12.5795 13.4 12.4998 13.5978 12.5003 13.8334C12.5003 14.0695 12.5803 14.2675 12.7403 14.4275C12.9003 14.5875 13.0981 14.6673 13.3337 14.6667ZM15.8337 14.6667C16.0698 14.6667 16.2678 14.5867 16.4278 14.4267C16.5878 14.2667 16.6675 14.0689 16.667 13.8334C16.667 13.5973 16.587 13.3992 16.427 13.2392C16.267 13.0792 16.0692 12.9995 15.8337 13C15.5975 13 15.3995 13.08 15.2395 13.24C15.0795 13.4 14.9998 13.5978 15.0003 13.8334C15.0003 14.0695 15.0803 14.2675 15.2403 14.4275C15.4003 14.5875 15.5981 14.6673 15.8337 14.6667ZM8.33366 14.6667H11.667V10.5H8.33366V14.6667Z" fill="#D50C1F"/>
</svg>
