<svg width="20" height="20" viewBox="0 0 20 20" fill="none" xmlns="http://www.w3.org/2000/svg">
<path d="M7.525 13.05C7.75043 13.05 7.96663 13.1396 8.12604 13.299C8.28545 13.4584 8.375 13.6746 8.375 13.9C8.375 14.1254 8.28545 14.3416 8.12604 14.501C7.96663 14.6604 7.75043 14.75 7.525 14.75C7.29957 14.75 7.08337 14.6604 6.92396 14.501C6.76455 14.3416 6.675 14.1254 6.675 13.9C6.675 13.6746 6.76455 13.4584 6.92396 13.299C7.08337 13.1396 7.29957 13.05 7.525 13.05ZM6.25 7.95H14.75V12.2H6.25V7.95ZM13.475 13.05C13.7004 13.05 13.9166 13.1396 14.076 13.299C14.2354 13.4584 14.325 13.6746 14.325 13.9C14.325 14.1254 14.2354 14.3416 14.076 14.501C13.9166 14.6604 13.7004 14.75 13.475 14.75C13.2496 14.75 13.0334 14.6604 12.874 14.501C12.7146 14.3416 12.625 14.1254 12.625 13.9C12.625 13.6746 12.7146 13.4584 12.874 13.299C13.0334 13.1396 13.2496 13.05 13.475 13.05ZM15.6 13.798V7.95C15.6 5.723 13.322 5.4 10.5 5.4C7.95 5.4 5.4 5.7145 5.4 7.95V13.798C5.4 14.3886 5.63463 14.9551 6.05227 15.3727C6.25907 15.5795 6.50457 15.7436 6.77476 15.8555C7.04496 15.9674 7.33455 16.025 7.627 16.025L6.675 16.977V17.3H8.0945L9.3695 16.025H11.775L13.05 17.3H14.325V16.977L13.3645 16.025C14.597 16.025 15.6 15.0305 15.6 13.798ZM15.43 2.68C17.6995 3.564 19 5.4425 19 7.831V19H2V7.831C2 5.4425 3.3005 3.564 5.57 2.68C7.1 2.0765 8.919 2 10.5 2C12.081 2 13.9 2.0765 15.43 2.68Z" fill="#282828"/>
</svg>
