<svg width="20" height="21" viewBox="0 0 20 21" fill="none" xmlns="http://www.w3.org/2000/svg">
<path d="M8.75 12.375C8.62643 12.3749 8.50565 12.3383 8.40292 12.2696C8.30019 12.2009 8.22013 12.1033 8.17285 11.9891C8.12557 11.875 8.11319 11.7493 8.13728 11.6281C8.16138 11.5069 8.22085 11.3956 8.3082 11.3082L14.4777 5.13867C14.1584 4.96531 13.8008 4.87466 13.4375 4.875H4.0625C3.48253 4.87562 2.92649 5.10629 2.51639 5.51639C2.10629 5.92649 1.87562 6.48253 1.875 7.0625V16.4375C1.87562 17.0175 2.10629 17.5735 2.51639 17.9836C2.92649 18.3937 3.48253 18.6244 4.0625 18.625H13.4375C14.0175 18.6244 14.5735 18.3937 14.9836 17.9836C15.3937 17.5735 15.6244 17.0175 15.625 16.4375V7.0625C15.6253 6.69918 15.5347 6.34156 15.3613 6.02227L9.1918 12.1918C9.13389 12.25 9.06504 12.2961 8.98922 12.3276C8.91339 12.359 8.83209 12.3751 8.75 12.375Z" fill="#D50C1F"/>
<path d="M17.5 2.375H13.125C12.9592 2.375 12.8003 2.44085 12.6831 2.55806C12.5658 2.67527 12.5 2.83424 12.5 3C12.5 3.16576 12.5658 3.32473 12.6831 3.44194C12.8003 3.55915 12.9592 3.625 13.125 3.625H15.991L14.4777 5.13867C14.8514 5.34166 15.1583 5.64856 15.3613 6.02227L16.875 4.50898V7.375C16.875 7.54076 16.9408 7.69973 17.0581 7.81694C17.1753 7.93415 17.3342 8 17.5 8C17.6658 8 17.8247 7.93415 17.9419 7.81694C18.0592 7.69973 18.125 7.54076 18.125 7.375V3C18.125 2.83424 18.0592 2.67527 17.9419 2.55806C17.8247 2.44085 17.6658 2.375 17.5 2.375Z" fill="#D50C1F"/>
</svg>
