<svg width="20" height="21" viewBox="0 0 20 21" fill="none" xmlns="http://www.w3.org/2000/svg">
<path d="M17.5 14.1833V17.13C17.5001 17.341 17.4202 17.5441 17.2763 17.6985C17.1325 17.8528 16.9355 17.9469 16.725 17.9617C16.3608 17.9867 16.0633 18 15.8333 18C8.46917 18 2.5 12.0308 2.5 4.66667C2.5 4.43667 2.5125 4.13917 2.53833 3.775C2.5531 3.56454 2.64715 3.36751 2.8015 3.22367C2.95585 3.07984 3.15902 2.9999 3.37 3H6.31667C6.42003 2.9999 6.51975 3.03822 6.59644 3.10752C6.67313 3.17682 6.72133 3.27215 6.73167 3.375C6.75083 3.56667 6.76833 3.71917 6.785 3.835C6.95061 4.99077 7.29 6.11486 7.79167 7.16917C7.87083 7.33583 7.81917 7.535 7.66917 7.64167L5.87083 8.92667C6.97038 11.4887 9.01212 13.5305 11.5742 14.63L12.8575 12.835C12.91 12.7617 12.9865 12.7091 13.0737 12.6864C13.161 12.6637 13.2535 12.6723 13.335 12.7108C14.3892 13.2116 15.513 13.5501 16.6683 13.715C16.7842 13.7317 16.9367 13.7492 17.1267 13.7683C17.2294 13.7789 17.3245 13.8271 17.3936 13.9038C17.4628 13.9805 17.5001 14.0801 17.5 14.1833Z" fill="#D50C1F"/>
</svg>
