<svg width="24" height="24" viewBox="0 0 24 24" fill="none" xmlns="http://www.w3.org/2000/svg">
<path fill-rule="evenodd" clip-rule="evenodd" d="M5.5562 5.5562C8.5944 2.5191 10.1124 1 12 1C13.8876 1 15.4056 2.518 18.4438 5.5562C21.4809 8.5944 23 10.1124 23 12C23 13.8876 21.482 15.4056 18.4438 18.4438C15.4056 21.4809 13.8876 23 12 23C10.1124 23 8.5944 21.482 5.5562 18.4438C2.5191 15.4056 1 13.8876 1 12C1 10.1124 2.518 8.5944 5.5562 5.5562ZM14.0306 8.0972C13.9515 8.02309 13.8586 7.96529 13.7572 7.9271C13.6557 7.8889 13.5478 7.87105 13.4395 7.87457C13.3311 7.8781 13.2246 7.90292 13.1258 7.94763C13.0271 7.99234 12.9382 8.05606 12.864 8.13515C12.7899 8.21424 12.7321 8.30715 12.6939 8.40858C12.6557 8.51 12.6379 8.61796 12.6414 8.72628C12.6449 8.83461 12.6698 8.94118 12.7145 9.03991C12.7592 9.13864 12.8229 9.2276 12.902 9.3017L14.3133 10.625H10.5337C9.9232 10.625 9.0179 10.79 8.238 11.3158C7.4152 11.8713 6.775 12.8085 6.775 14.2C6.775 14.4188 6.86192 14.6286 7.01664 14.7834C7.17135 14.9381 7.3812 15.025 7.6 15.025C7.8188 15.025 8.02865 14.9381 8.18336 14.7834C8.33808 14.6286 8.425 14.4188 8.425 14.2C8.425 13.3915 8.7627 12.9537 9.162 12.6842C9.57217 12.4226 10.0473 12.2809 10.5337 12.275H14.3133L12.902 13.5983C12.7461 13.7489 12.6558 13.9547 12.6504 14.1713C12.6451 14.3879 12.7252 14.598 12.8734 14.7561C13.0216 14.9141 13.2261 15.0075 13.4426 15.016C13.6592 15.0246 13.8704 14.9476 14.0306 14.8017L16.9643 12.0517C17.0466 11.9745 17.1121 11.8813 17.1569 11.7778C17.2017 11.6744 17.2249 11.5628 17.2249 11.45C17.2249 11.3372 17.2017 11.2256 17.1569 11.1222C17.1121 11.0187 17.0466 10.9255 16.9643 10.8483L14.0306 8.0983V8.0972Z" fill="white"/>
</svg>
