<svg width="24" height="24" viewBox="0 0 24 24" fill="none" xmlns="http://www.w3.org/2000/svg">
<path d="M21.8106 20.9119L16.6469 15.8308C17.9991 14.3616 18.8299 12.4187 18.8299 10.2807C18.8293 5.7071 15.0621 2 10.4146 2C5.7672 2 2 5.7071 2 10.2807C2 14.8543 5.7672 18.5614 10.4146 18.5614C12.4227 18.5614 14.2644 17.8668 15.711 16.7122L20.8948 21.8134C21.1474 22.0622 21.5575 22.0622 21.81 21.8134C21.8701 21.7547 21.9179 21.6846 21.9505 21.6073C21.9831 21.5299 21.9999 21.4468 22 21.3628C22.0001 21.2788 21.9833 21.1957 21.9508 21.1182C21.9183 21.0408 21.8706 20.9707 21.8106 20.9119ZM10.4146 17.2873C6.4824 17.2873 3.29471 14.1504 3.29471 10.2807C3.29471 6.41101 6.4824 3.27403 10.4146 3.27403C14.3469 3.27403 17.5346 6.41101 17.5346 10.2807C17.5346 14.1504 14.3469 17.2873 10.4146 17.2873Z" fill="white"/>
</svg>
