<svg width="20" height="21" viewBox="0 0 20 21" fill="none" xmlns="http://www.w3.org/2000/svg">
<g clip-path="url(#clip0_2431_4408)">
<path d="M10.0003 2.16663C14.6028 2.16663 18.3337 5.89746 18.3337 10.5C18.3337 15.1025 14.6028 18.8333 10.0003 18.8333C5.39783 18.8333 1.66699 15.1025 1.66699 10.5C1.66699 5.89746 5.39783 2.16663 10.0003 2.16663ZM10.0003 5.49996C9.77931 5.49996 9.56735 5.58776 9.41107 5.74404C9.25479 5.90032 9.16699 6.11228 9.16699 6.33329V10.5C9.16704 10.721 9.25487 10.9329 9.41116 11.0891L11.9112 13.5891C12.0683 13.7409 12.2788 13.8249 12.4973 13.823C12.7158 13.8211 12.9248 13.7335 13.0793 13.579C13.2338 13.4245 13.3215 13.2155 13.3234 12.997C13.3253 12.7785 13.2413 12.568 13.0895 12.4108L10.8337 10.155V6.33329C10.8337 6.11228 10.7459 5.90032 10.5896 5.74404C10.4333 5.58776 10.2213 5.49996 10.0003 5.49996Z" fill="#D50C1F"/>
</g>
<defs>
<clipPath id="clip0_2431_4408">
<rect width="20" height="20" fill="white" transform="translate(0 0.5)"/>
</clipPath>
</defs>
</svg>
