<svg width="22.0078" height="22.0068" viewBox="0 0 22.0078 22.0068" fill="none" xmlns="http://www.w3.org/2000/svg">
<path id="Union" d="M11.0039 0C17.0808 8.50363e-05 22.0075 4.92632 22.0078 11.0029C22.0078 17.0798 17.081 22.0068 11.0039 22.0068C4.92683 22.0067 0 17.0798 0 11.0029C0.000362426 4.92633 4.92705 0.000107258 11.0039 0ZM11.0039 1.5C5.75541 1.50011 1.50036 5.75483 1.5 11.0029C1.5 14.0442 2.93037 16.7506 5.15332 18.4902L8.00195 16.9365C8.42209 16.7067 8.68358 16.2669 8.68359 15.7881V14.5186L8.59277 14.3994C8.37079 14.1061 7.76521 13.2308 7.47266 12.085L7.43652 11.9434L7.32324 11.8506C7.0979 11.666 6.96777 11.3944 6.96777 11.1035V9.73145C6.96785 9.50543 7.05109 9.28249 7.20312 9.10547L7.31152 8.98047V6.98633L7.30859 6.96387C7.29202 6.79817 7.23539 5.82476 7.92969 5.0332L8.0459 4.90918C8.65329 4.30509 9.62532 3.95898 11.0264 3.95898C12.5201 3.95907 13.5257 4.35257 14.1221 5.0332C14.8169 5.82534 14.7597 6.79925 14.7432 6.96484L14.7402 6.9873V8.98047L14.8486 9.10645C15.0006 9.28313 15.084 9.50605 15.084 9.73242V11.1045C15.0838 11.4808 14.8687 11.8143 14.5312 11.9746L14.3623 12.0547L14.3018 12.2314C14.067 12.9099 13.7455 13.5382 13.3467 14.1016C13.2684 14.2116 13.194 14.3103 13.125 14.3955L13.0254 14.5176V15.8203C13.0255 16.3177 13.3039 16.7677 13.749 16.9902L16.8135 18.5215C19.0598 16.7831 20.5078 14.0628 20.5078 11.0029C20.5075 5.75481 16.2524 1.50009 11.0039 1.5Z" fill="#B2B2B2"/>
</svg>
