<svg width="20" height="20" viewBox="0 0 20 20" fill="none" xmlns="http://www.w3.org/2000/svg">
<path d="M6.95 11.4H4.58C4.33845 10.4823 4.33845 9.5177 4.58 8.6H6.95C6.88834 9.06421 6.85495 9.53174 6.85 10C6.85495 10.4683 6.88834 10.9358 6.95 11.4ZM5.16 7.2H7.2C7.43329 6.33622 7.76198 5.50108 8.18 4.71C6.90435 5.1457 5.83087 6.03079 5.16 7.2ZM14.84 7.2C14.1639 6.03131 13.0876 5.14684 11.81 4.71C12.2338 5.49729 12.5595 6.33351 12.78 7.2M10 15.57C10.5942 14.7256 11.0468 13.79 11.34 12.8H8.66C8.95317 13.79 9.40577 14.7256 10 15.57ZM10 4.42C9.40526 5.26771 8.95266 6.20669 8.66 7.2H11.34C11.0473 6.20669 10.5947 5.26771 10 4.42ZM5.16 12.8C5.83508 13.9657 6.90704 14.8495 8.18 15.29C7.76198 14.4989 7.43329 13.6638 7.2 12.8M19 3V17C19 17.5304 18.7893 18.0391 18.4142 18.4142C18.0391 18.7893 17.5304 19 17 19H3C2.46957 19 1.96086 18.7893 1.58579 18.4142C1.21071 18.0391 1 17.5304 1 17V3C1 2.46957 1.21071 1.96086 1.58579 1.58579C1.96086 1.21071 2.46957 1 3 1H17C17.5304 1 18.0391 1.21071 18.4142 1.58579C18.7893 1.96086 19 2.46957 19 3ZM17 10C17 8.61553 16.5895 7.26215 15.8203 6.11101C15.0511 4.95986 13.9579 4.06266 12.6788 3.53284C11.3997 3.00303 9.99224 2.86441 8.63437 3.1345C7.2765 3.4046 6.02922 4.07128 5.05025 5.05025C4.07128 6.02922 3.4046 7.2765 3.1345 8.63437C2.86441 9.99224 3.00303 11.3997 3.53284 12.6788C4.06266 13.9579 4.95986 15.0511 6.11101 15.8203C7.26215 16.5895 8.61553 17 10 17C11.8565 17 13.637 16.2625 14.9497 14.9497C16.2625 13.637 17 11.8565 17 10ZM13.15 10C13.1451 10.4683 13.1117 10.9358 13.05 11.4H15.42C15.6616 10.4823 15.6616 9.5177 15.42 8.6H13.05C13.1117 9.06421 13.1451 9.53174 13.15 10ZM11.81 15.29C13.0862 14.8508 14.1618 13.9669 14.84 12.8H12.78C12.5595 13.6665 12.2338 14.5027 11.81 15.29ZM8.36 8.6C8.21073 9.52737 8.21073 10.4726 8.36 11.4H11.64C11.7085 10.9364 11.7452 10.4686 11.75 10C11.7455 9.53136 11.7088 9.06359 11.64 8.6H8.36Z" fill="#282828"/>
</svg>
